<?xml version="1.0" standalone="no"?>
<!DOCTYPE svg PUBLIC "-//W3C//DTD SVG 20010904//EN"
 "http://www.w3.org/TR/2001/REC-SVG-20010904/DTD/svg10.dtd">
<svg version="1.0" xmlns="http://www.w3.org/2000/svg"
 width="100.000000pt" height="100.000000pt" viewBox="0 0 100.000000 100.000000"
 preserveAspectRatio="xMidYMid meet">
<metadata>
Created by potrace 1.11, written by Peter Selinger 2001-2013
</metadata>
<g transform="translate(0.000000,100.000000) scale(0.100000,-0.100000)"
fill="#000000" stroke="none">
<path d="M452 953 c-39 -8 -100 -74 -113 -124 -9 -35 -19 -48 -39 -56 -15 -5
-40 -27 -56 -48 -25 -33 -29 -47 -29 -100 0 -51 4 -67 27 -97 15 -19 42 -42
60 -51 25 -12 39 -30 57 -74 13 -32 32 -76 42 -98 9 -22 32 -78 49 -125 18
-47 37 -90 44 -97 8 -9 30 35 91 183 72 176 83 197 110 208 66 28 104 105 92
182 -8 45 -52 104 -88 118 -20 7 -30 20 -35 41 -21 100 -111 158 -212 138z"/>
</g>
</svg>
